<?xml version="1.0" encoding="UTF-8"?>
<!-- Created with Inkscape (http://www.inkscape.org/) -->
<svg width="729.45" height="298.58" version="1.1" viewBox="0 0 729.45 298.58" xml:space="preserve" xmlns="http://www.w3.org/2000/svg" xmlns:cc="http://creativecommons.org/ns#" xmlns:dc="http://purl.org/dc/elements/1.1/" xmlns:rdf="http://www.w3.org/1999/02/22-rdf-syntax-ns#"><metadata><rdf:RDF><cc:Work rdf:about=""><dc:format>image/svg+xml</dc:format><dc:type rdf:resource="http://purl.org/dc/dcmitype/StillImage"/><dc:title/></cc:Work></rdf:RDF></metadata><defs><clipPath id="clipPath115"><path d="M 0,223.938 H 547.088 V 0 H 0 Z"/></clipPath><clipPath id="clipPath127"><path d="m140.3 175.28c-5.395-0.024-10.548-0.485-15.081-1.287-13.356-2.359-15.781-7.298-15.781-16.406v-12.028h31.561v-4.01h-43.406c-9.172 0-17.204-5.513-19.716-16.002-2.898-12.021-3.027-19.522 0-32.075 2.244-9.344 7.601-16.002 16.774-16.002h10.851v14.42c0 10.417 9.014 19.606 19.717 19.606h31.524c8.776 0 15.781 7.226 15.781 16.038v30.053c0 8.553-7.216 14.979-15.781 16.406-5.265 0.877-10.722 1.288-15.974 1.288-0.157 0-0.313 0-0.469-1e-3m-22.989-15.706c0 3.327 2.649 6.032 5.921 6.032 3.26 0 5.922-2.705 5.922-6.032 0-3.315-2.662-5.996-5.922-5.996-3.272 0-5.921 2.681-5.921 5.996"/></clipPath><linearGradient id="linearGradient137" x2="1" gradientTransform="matrix(72.187 -62.707 62.108 72.884 72.445 171.51)" gradientUnits="userSpaceOnUse"><stop stop-color="#5c9fd3" offset="0"/><stop stop-color="#316a99" offset="1"/></linearGradient><clipPath id="clipPath147"><path d="m176.46 141.55v-14.015c0-10.865-9.211-20.01-19.716-20.01h-31.524c-8.636 0-15.781-7.391-15.781-16.038v-30.054c0-8.552 7.438-13.584 15.781-16.038 9.99-2.937 19.57-3.468 31.524 0 7.946 2.301 15.781 6.93 15.781 16.038v12.03h-31.525v4.008h47.305c9.173 0 12.591 6.398 15.781 16.002 3.295 9.886 3.154 19.393 0 32.075-2.267 9.132-6.596 16.002-15.781 16.002zm-23.652-82.103c0 3.315 2.663 5.996 5.922 5.996 3.273 0 5.923-2.681 5.923-5.996 0-3.327-2.65-6.033-5.923-6.033-3.259 0-5.922 2.706-5.922 6.033"/></clipPath><linearGradient id="linearGradient157" x2="1" gradientTransform="matrix(-25.778 36.824 -36.472 -26.027 172.54 70.854)" gradientUnits="userSpaceOnUse"><stop stop-color="#ffd53d" offset="0"/><stop stop-color="#fee875" offset="1"/></linearGradient></defs><g transform="matrix(1.3333 0 0 -1.3333 0 298.58)"><g clip-path="url(#clipPath115)"><text transform="matrix(.92818 0 0 -1 3.5718 35.434)" fill="#e2e3e4" font-family="'Liberation Sans'" font-size="213.87px" font-style="italic" font-weight="bold"><tspan x="0 154.41125 297.05988 439.7085" y="0">ASPP</tspan></text>
</g><g clip-path="url(#clipPath127)"><path d="m140.3 175.28c-5.395-0.024-10.548-0.485-15.081-1.287-13.356-2.359-15.781-7.298-15.781-16.406v-12.028h31.561v-4.01h-43.406c-9.172 0-17.204-5.513-19.716-16.002-2.898-12.021-3.027-19.522 0-32.075 2.244-9.344 7.601-16.002 16.774-16.002h10.851v14.42c0 10.417 9.014 19.606 19.717 19.606h31.524c8.776 0 15.781 7.226 15.781 16.038v30.053c0 8.553-7.216 14.979-15.781 16.406-5.265 0.877-10.722 1.288-15.974 1.288-0.157 0-0.313 0-0.469-1e-3m-22.989-15.706c0 3.327 2.649 6.032 5.921 6.032 3.26 0 5.922-2.705 5.922-6.032 0-3.315-2.662-5.996-5.922-5.996-3.272 0-5.921 2.681-5.921 5.996" fill="url(#linearGradient137)"/></g><g clip-path="url(#clipPath147)"><path d="m176.46 141.55v-14.015c0-10.865-9.211-20.01-19.716-20.01h-31.524c-8.636 0-15.781-7.391-15.781-16.038v-30.054c0-8.552 7.438-13.584 15.781-16.038 9.99-2.937 19.57-3.468 31.524 0 7.946 2.301 15.781 6.93 15.781 16.038v12.03h-31.525v4.008h47.305c9.173 0 12.591 6.398 15.781 16.002 3.295 9.886 3.154 19.393 0 32.075-2.267 9.132-6.596 16.002-15.781 16.002zm-23.652-82.103c0 3.315 2.663 5.996 5.922 5.996 3.273 0 5.923-2.681 5.923-5.996 0-3.327-2.65-6.033-5.923-6.033-3.259 0-5.922 2.706-5.922 6.033" fill="url(#linearGradient157)"/></g><text transform="scale(1,-1)" x="49.039268" y="-17.433599" fill="#231f20" font-family="'Liberation Sans'" font-size="26px" font-style="italic" font-weight="bold"><tspan x="49.039268" y="5.5703068" font-family="Ubuntu" font-style="italic" font-weight="bold"/></text>
<text transform="scale(1,-1)" x="52.509247" y="-18.792149" fill="#000000" font-family="sans-serif" font-size="30px" letter-spacing="0px" stroke-width=".75" word-spacing="0px" style="line-height:1.25" xml:space="preserve"><tspan x="52.509247" y="-18.792149" font-family="Ubuntu" font-size="26px" font-style="italic" font-weight="500" stroke-width=".75">Canberra 2019</tspan></text>
</g></svg>
